<?xml version="1.0" encoding="UTF-8"?><svg id="Calque_2" xmlns="http://www.w3.org/2000/svg" viewBox="0 0 527.5643 125.8799"><g id="Components"><g id="_851c02f8-817f-40b7-888c-5ac8c9448dd8_5"><path d="M157.6496,71.8209c-1.5633-.505-3.5397-1.0572-5.9301-1.6318-2.3904-.5746-4.8033-1.1717-7.2398-1.7923-2.4365-.6206-4.5508-1.1492-6.3207-1.5633-4.7809-1.3333-7.9985-2.6665-9.6538-3.9762-1.6542-1.2873-2.5049-2.873-2.5049-4.7349,0-2.8034,1.3097-4.8494,3.9078-6.0906,2.5969-1.2412,5.1939-1.8619,7.7908-1.8619,3.7473,0,6.9873,1.0347,9.7458,3.1031,2.7586,2.0919,4.1367,4.6889,4.1367,7.8144h23.6744c0-5.7225-1.5633-10.7335-4.6664-15.0542-3.1255-4.2983-7.3778-7.6764-12.7794-10.1364-5.4004-2.4365-11.5841-3.6541-18.5479-3.6541-4.1603,0-8.389.5286-12.7098,1.5622-4.2983,1.0347-8.2745,2.7361-11.9062,5.057-3.6541,2.3444-6.5507,5.4475-8.7347,9.2857-2.1828,3.8382-3.286,8.5731-3.286,14.1811,0,4.9874.9191,9.0096,2.735,12.0667,1.8158,3.0795,4.2063,5.4935,7.1713,7.2634,2.9651,1.7463,6.2051,3.2636,9.7447,4.5048,3.0111,1.0347,5.8381,1.9079,8.481,2.5745,2.6665.6891,5.7461,1.4253,9.2857,2.2524,4.9885,1.2637,8.389,2.3904,10.2049,3.4476,1.8158,1.0336,2.7361,2.5969,2.7361,4.6653,0,2.7125-1.1952,4.7809-3.5857,6.2286-2.3904,1.4713-5.4015,2.184-9.0556,2.184-4.1603,0-7.6315-1.0347-10.4349-3.1031-2.8046-2.0919-4.6204-5.3555-5.4475-9.8368h-22.2951c0,9.6763,3.4252,17.2831,10.2969,22.8462,6.8493,5.562,16.2506,8.3194,28.2017,8.3194,11.4237,0,20.3413-2.5734,26.7304-7.7908,6.3902-5.195,9.5854-12.4573,9.5854-21.8126,0-6.1366-1.5409-11.216-4.5968-15.2607-3.0806-4.0694-7.976-7.0793-14.7332-9.0568Z" style="fill:#fff;"/><rect x="357.7728" y="34.2425" width="25.2366" height="89.5925" style="fill:#fff;"/><path d="M379.0792,2.5012c-3.6306-2.5285-8.0669-2.9426-12.2272-2.1155-5.3779,1.0583-9.4238,5.3555-9.9984,10.573-.5746,5.2635,2.0223,10.4125,7.1253,12.6649,4.3668,1.9539,9.4238,1.7463,13.63-.4141,3.9302-2.0223,6.067-5.9301,6.3431-9.8368.3221-4.2523-1.1256-8.251-4.8729-10.8715Z" style="fill:#fff;"/><path d="M456.7823,34.1348l-26.2141.0079-.0404-22.8136-24.3927.0617-.0292,22.7542-16.3415-.0382.0123,18.9452,16.3235-.046.2637,41.9698c.0999,15.7096,11.2362,27.8527,26.4128,30.1241,7.3038,1.0931,14.3449.6543,21.633-1.2648l.0123-18.9642-11.5718.1212c-8.3509,0-12.1172-5.8718-12.1565-12.7738l-.2144-39.1697,26.3387-.0314-.0359-18.8823Z" style="fill:#fff;"/><polygon points="496.2685 34.3009 465.5024 34.3009 510.5371 79.3356 466.0074 123.8541 496.7746 123.8541 527.5643 93.0655 527.5643 65.5956 496.2685 34.3009" style="fill:#fff;"/><polygon points="318.5874 34.3009 287.2927 65.5956 287.2927 93.0655 318.0812 123.8541 348.8485 123.8541 304.3188 79.3356 349.3546 34.3009 318.5874 34.3009" style="fill:#fff;"/><path d="M93.5923,77.1764c-.9427-25.0066-21.514-45.0033-46.7731-45.0033C20.9619,32.1731,0,53.1349,0,78.9922c0,25.8337,20.9383,46.7956,46.7731,46.818h9.7907v-22.9607s-9.7683.0236-9.7907.0236c-13.1475-.0236-23.8349-10.7346-23.8349-23.8809,0-13.1699,10.711-23.8809,23.8809-23.8809,13.1003,0,23.7653,10.5954,23.8798,23.6509v45.0493h22.9393v-44.8192c0-.5982-.0236-1.2188-.046-1.8158Z" style="fill:#fff;"/><path d="M228.0363,102.9192c-13.1699,0-23.8809-10.711-23.8809-23.8574,0-13.171,10.711-23.8809,23.8809-23.8809,11.6302,0,21.3289,8.343,23.4444,19.3525h23.1447c-2.276-23.7653-22.2716-42.2907-46.5891-42.2907-25.8573,0-46.8191,20.9383-46.8191,46.8191,0,25.8573,20.9619,46.818,46.8191,46.818,22.4321,0,41.1876-15.7893,45.7619-36.8432h-24.0885c-3.7686,8.1825-12.0667,13.8826-21.6734,13.8826Z" style="fill:#fff;"/></g></g></svg>